<svg width="44" height="44" viewBox="0 0 44 44" fill="none" xmlns="http://www.w3.org/2000/svg">
<path d="M32.0833 34.8334H16.5C14.1201 34.8327 11.7872 34.1704 9.76206 32.9202C7.73693 31.6701 6.09932 29.8814 5.03223 27.7541C3.96514 25.6269 3.51061 23.2448 3.71942 20.874C3.92823 18.5033 4.79217 16.2373 6.21469 14.3293C7.6372 12.4213 9.56226 10.9465 11.7747 10.0696C13.9872 9.19268 16.3999 8.94829 18.7433 9.36371C21.0867 9.77912 23.2684 10.838 25.0446 12.422C26.8209 14.0059 28.1217 16.0526 28.8016 18.3334H32.0833C34.2713 18.3334 36.3698 19.2026 37.9169 20.7497C39.4641 22.2969 40.3333 24.3953 40.3333 26.5834C40.3333 28.7714 39.4641 30.8698 37.9169 32.417C36.3698 33.9642 34.2713 34.8334 32.0833 34.8334Z" stroke="#6DB1EF" stroke-width="4" stroke-linecap="round" stroke-linejoin="round"/>
</svg>
